<?xml version="1.0" encoding="UTF-8"?>
<!DOCTYPE svg PUBLIC "-//W3C//DTD SVG 1.1//EN" "http://www.w3.org/Graphics/SVG/1.1/DTD/svg11.dtd">
<!-- Creator: CorelDRAW -->
<svg xmlns="http://www.w3.org/2000/svg" xml:space="preserve" width="3084px" height="3084px" version="1.1" shape-rendering="geometricPrecision" text-rendering="geometricPrecision" image-rendering="optimizeQuality" fill-rule="evenodd" clip-rule="evenodd"
viewBox="0 0 130.92 130.92"
 xmlns:xlink="http://www.w3.org/1999/xlink"
 xmlns:xodm="http://www.corel.com/coreldraw/odm/2003">
 <g id="Layer_x0020_1">
  <metadata id="CorelCorpID_0Corel-Layer"/>
  <rect fill="white" width="130.92" height="130.92"/>
  <path fill="black" d="M84.64 0l-10.69 33.65 56.97 -11.71 -48.59 42.08 32.55 49.58 -45.02 -20.38 -11.52 37.7 -13.25 0 17.04 -55.8 24.4 14.59 -20.56 -26.89 24.92 -21.43 -35.05 10.71 16.55 -52.1 12.25 0zm-23.27 0l-14.28 44.97 -23.96 -17.54 20.24 29.74 -31.31 29.01 40.08 -17.66 -19.08 62.4 -2.47 0 17.75 -58.13 -48.34 21.32 40.24 -37.3 -26.88 -39.49 32.47 23.77 13.05 -41.09 2.49 0z"/>
 </g>
</svg>
