<?xml version="1.0" encoding="UTF-8"?>
<!DOCTYPE svg PUBLIC "-//W3C//DTD SVG 1.1//EN" "http://www.w3.org/Graphics/SVG/1.1/DTD/svg11.dtd">
<!-- Creator: CorelDRAW -->
<svg xmlns="http://www.w3.org/2000/svg" xml:space="preserve" width="3084px" height="3084px" version="1.1" shape-rendering="geometricPrecision" text-rendering="geometricPrecision" image-rendering="optimizeQuality" fill-rule="evenodd" clip-rule="evenodd"
viewBox="0 0 150.6 150.6"
 xmlns:xlink="http://www.w3.org/1999/xlink"
 xmlns:xodm="http://www.corel.com/coreldraw/odm/2003">
 <g id="Layer_x0020_1">
  <metadata id="CorelCorpID_0Corel-Layer"/>
  <rect fill="#3B0303" width="150.6" height="150.6"/>
  <path fill="#FFFFA1" d="M97.37 0l-12.3 38.71 65.53 -13.47 -55.89 48.4 37.44 57.04 -51.79 -23.44 -13.24 43.36 -15.26 0 19.61 -64.18 28.07 16.78 -23.65 -30.93 28.67 -24.66 -40.33 12.33 19.04 -59.94 14.1 0zm-26.77 0l-16.42 51.73 -27.57 -20.17 23.28 34.2 -36.02 33.38 46.11 -20.32 -21.94 71.78 -2.86 0 20.42 -66.86 -55.6 24.52 46.29 -42.91 -30.92 -45.42 37.35 27.34 15.01 -47.27 2.87 0z"/>
 </g>
</svg>
