<?xml version="1.0" encoding="UTF-8"?>
<!DOCTYPE svg PUBLIC "-//W3C//DTD SVG 1.1//EN" "http://www.w3.org/Graphics/SVG/1.1/DTD/svg11.dtd">
<!-- Creator: CorelDRAW -->
<svg xmlns="http://www.w3.org/2000/svg" xml:space="preserve" width="456px" height="354px" version="1.1" shape-rendering="geometricPrecision" text-rendering="geometricPrecision" image-rendering="optimizeQuality" fill-rule="evenodd" clip-rule="evenodd"
viewBox="0 0 114.84 89.2"
 xmlns:xlink="http://www.w3.org/1999/xlink"
 xmlns:xodm="http://www.corel.com/coreldraw/odm/2003">
  <!-- #571616 -->
  <path fill="#DCDCAA" d="M55.82 89.2l5.46 -17.87 39.49 17.87 -28.55 -43.49 42.62 -36.91 -49.97 10.27 6.06 -19.07 -10.75 0 -11.2 35.26 30.75 -9.4 -21.86 18.8 18.03 23.59 -21.4 -12.8 -10.31 33.75 11.63 0zm-5.3 -89.2l-9.21 29 -21.02 -15.38 17.75 26.08 -27.46 25.45 35.16 -15.49 -12.09 39.54 -2.18 0 10.93 -35.79 -42.4 18.7 35.3 -32.72 -23.58 -34.64 28.48 20.85 8.13 -25.6 2.19 0z"/>
</svg>
